<svg width="11" height="11" viewBox="0 0 11 11" fill="none" xmlns="http://www.w3.org/2000/svg">
<path d="M5.5 0C2.46169 0 0 2.46169 0 5.5C0 8.53831 2.46169 11 5.5 11C8.53831 11 11 8.53831 11 5.5C11 2.46169 8.53831 0 5.5 0ZM1.95161 5.5H1.24194C1.24194 3.15141 3.15141 1.24194 5.5 1.24194V1.95161C3.54395 1.95161 1.95161 3.54395 1.95161 5.5ZM5.5 7.62903C4.3246 7.62903 3.37097 6.6754 3.37097 5.5C3.37097 4.3246 4.3246 3.37097 5.5 3.37097C6.6754 3.37097 7.62903 4.3246 7.62903 5.5C7.62903 6.6754 6.6754 7.62903 5.5 7.62903ZM5.5 4.79032C5.10746 4.79032 4.79032 5.10746 4.79032 5.5C4.79032 5.89254 5.10746 6.20968 5.5 6.20968C5.89254 6.20968 6.20968 5.89254 6.20968 5.5C6.20968 5.10746 5.89254 4.79032 5.5 4.79032Z" fill="white"/>
</svg>
