<svg width="50" height="45" viewBox="0 0 50 45" fill="none" xmlns="http://www.w3.org/2000/svg">
<path d="M23.8962 21.7455C24.5039 22.3878 25.4934 22.3878 26.1097 21.7455L35.5623 11.8328C38.3052 8.95103 38.1489 4.17699 35.0762 1.52088C32.4027 -0.796696 28.4186 -0.380053 25.9708 2.18925L24.9986 3.20482L24.0351 2.19793C21.5873 -0.380053 17.6032 -0.796696 14.9297 1.52088C11.8657 4.17699 11.7007 8.95103 14.4436 11.8328L23.8962 21.7455ZM49.0685 28.4812C48.0442 27.5524 46.4471 27.6132 45.3708 28.4812L37.3504 34.8958C36.3695 35.6857 35.1456 36.111 33.8783 36.111H23.6098C22.846 36.111 22.221 35.486 22.221 34.7222C22.221 33.9583 22.846 33.3334 23.6098 33.3334H30.4063C31.7864 33.3334 33.0711 32.3872 33.2968 31.0245C33.5832 29.2884 32.2465 27.7781 30.5539 27.7781H16.6657C14.3221 27.7781 12.0566 28.5854 10.2338 30.061L6.19757 33.3334H1.38881C0.624965 33.3334 0 33.9583 0 34.7222V43.055C0 43.8189 0.624965 44.4439 1.38881 44.4439H32.3593C33.6179 44.4439 34.8418 44.0185 35.8314 43.2287L48.9556 32.7258C50.275 31.6755 50.3792 29.6617 49.0685 28.4812Z" fill="#463F3A"/>
</svg>
