<svg width="23" height="23" viewBox="0 0 23 23" fill="none" xmlns="http://www.w3.org/2000/svg">
<path d="M15.8595 11.5L22.3982 4.96133C23.2006 4.15895 23.2006 2.85801 22.3982 2.05497L20.945 0.60179C20.1426 -0.200597 18.8417 -0.200597 18.0387 0.60179L11.5 7.14045L4.96134 0.60179C4.15895 -0.200597 2.85801 -0.200597 2.05497 0.60179L0.60179 2.05497C-0.200597 2.85736 -0.200597 4.15829 0.60179 4.96133L7.14045 11.5L0.60179 18.0387C-0.200597 18.8411 -0.200597 20.142 0.60179 20.945L2.05497 22.3982C2.85736 23.2006 4.15895 23.2006 4.96134 22.3982L11.5 15.8595L18.0387 22.3982C18.8411 23.2006 20.1426 23.2006 20.945 22.3982L22.3982 20.945C23.2006 20.1426 23.2006 18.8417 22.3982 18.0387L15.8595 11.5Z" fill="#F1F1F1"/>
</svg>
