<svg width="50" height="45" viewBox="0 0 50 45" fill="none" xmlns="http://www.w3.org/2000/svg">
<path d="M42.1441 0L50 13.8889H41.224L35.217 0H42.1441ZM31.033 0L37.0399 13.8889H12.9601L18.967 0H31.033ZM7.8559 0H14.783L8.77604 13.8889H0L7.8559 0ZM0 16.6667H8.74132L19.4184 38.5156C19.5486 38.7847 19.184 39.0278 18.9844 38.8021L0 16.6667ZM12.8646 16.6667H37.1354L25.2431 44.2882C25.1562 44.4965 24.8524 44.4965 24.7656 44.2882L12.8646 16.6667ZM30.5816 38.5156L41.2587 16.6667H50L31.0156 38.7934C30.816 39.0278 30.4514 38.7847 30.5816 38.5156Z" fill="#463F3A"/>
</svg>
