<svg width="65" height="9" viewBox="0 0 65 9" fill="none" xmlns="http://www.w3.org/2000/svg">
<g clip-path="url(#clip0_189_974)">
<path d="M56.4498 0.198142H55.1472C55.1 0.198126 55.0531 0.207222 55.0094 0.22491C54.9658 0.242599 54.9261 0.268533 54.8926 0.301231C54.8592 0.33393 54.8327 0.372751 54.8146 0.415476C54.7965 0.458201 54.7872 0.503994 54.7872 0.550236V8.45025C54.7872 8.4965 54.7965 8.54229 54.8146 8.58501C54.8327 8.62774 54.8592 8.66656 54.8926 8.69926C54.9261 8.73196 54.9658 8.75789 55.0094 8.77558C55.0531 8.79327 55.1 8.80236 55.1472 8.80235H56.4498C56.4971 8.80236 56.5439 8.79327 56.5876 8.77558C56.6313 8.75789 56.671 8.73196 56.7044 8.69926C56.7378 8.66656 56.7644 8.62774 56.7825 8.58501C56.8005 8.54229 56.8098 8.4965 56.8098 8.45025V0.550236C56.8098 0.503994 56.8005 0.458201 56.7825 0.415476C56.7644 0.372751 56.7378 0.33393 56.7044 0.301231C56.671 0.268533 56.6313 0.242599 56.5876 0.22491C56.5439 0.207222 56.4971 0.198126 56.4498 0.198142ZM51.2514 3.69847L50.1972 3.48568C49.336 3.30814 48.9734 3.03588 48.9734 2.56844C48.9734 2.00045 49.455 1.63954 50.1862 1.63954C50.8126 1.63954 51.3059 1.94806 51.4627 2.41648C51.5104 2.55926 51.6356 2.66305 51.7892 2.66305H53.0408C53.2582 2.66305 53.4311 2.4731 53.3954 2.26328C53.1644 0.903323 51.9068 0.000120002 50.1576 0.000244153C48.1858 0.000244153 46.9049 1.09501 46.9049 2.76349C46.9049 4.10681 47.6758 4.95874 49.1717 5.25459L50.2485 5.47955C51.1834 5.67447 51.5403 5.92911 51.5403 6.4025C51.5403 6.96453 51.0077 7.35499 50.2315 7.35499C49.493 7.35499 48.9505 7.06385 48.7784 6.58922C48.7291 6.45352 48.5854 6.33744 48.4382 6.33744H47.1298C46.9138 6.33744 46.7423 6.52578 46.7753 6.73473C46.997 8.14459 48.2503 9 50.1463 9C52.2884 9 53.5916 7.92323 53.5916 6.14227C53.5916 4.78716 52.8664 4.024 51.2514 3.69835M24.8188 0.198142H19.6244C19.527 0.198142 19.4386 0.236256 19.3738 0.297836L19.3696 0.30156C19.3675 0.303671 19.3658 0.305781 19.3636 0.307768C19.2995 0.373201 19.2637 0.460342 19.2637 0.550981V8.44976C19.2637 8.54461 19.3023 8.6304 19.3646 8.69384C19.3663 8.69545 19.3677 8.69732 19.3693 8.69905C19.3712 8.70067 19.3731 8.70216 19.3749 8.70402C19.4396 8.76473 19.5272 8.80235 19.6244 8.80235H19.6249L24.8193 8.80222C24.9149 8.80222 25.0066 8.76509 25.0742 8.699C25.1418 8.6329 25.1798 8.54325 25.1798 8.44976V7.17757C25.1798 7.08393 25.1418 6.99412 25.0741 6.9279C25.0064 6.86169 24.9145 6.82449 24.8188 6.82449H21.2863V5.48936H24.8188C24.8662 5.48934 24.9132 5.48019 24.957 5.46243C25.0008 5.44466 25.0406 5.41863 25.0741 5.38582C25.1077 5.35301 25.1343 5.31406 25.1524 5.2712C25.1705 5.22834 25.1798 5.18241 25.1798 5.13602V3.86397C25.1798 3.77045 25.1418 3.68077 25.0742 3.61465C25.0066 3.54852 24.9149 3.51138 24.8193 3.51138H21.2863V2.17625H24.8188C24.8662 2.17625 24.9132 2.16711 24.957 2.14936C25.0008 2.13161 25.0406 2.10559 25.0741 2.07279C25.1077 2.03999 25.1342 2.00105 25.1524 1.9582C25.1705 1.91534 25.1798 1.86942 25.1798 1.82304V0.551477C25.1798 0.45781 25.1418 0.367975 25.0741 0.301719C25.0064 0.235463 24.9146 0.198208 24.8188 0.198142ZM5.55288 6.82436H2.02054V0.551353C2.02047 0.457707 1.98239 0.367918 1.91467 0.301712C1.84694 0.235506 1.75511 0.198299 1.65936 0.198266H0.358975C0.263261 0.198299 0.171477 0.235497 0.103797 0.301683C0.0361175 0.367869 -0.00191948 0.457628 -0.00195312 0.551229V8.44976C-0.00195312 8.54436 0.0363867 8.6304 0.0987207 8.69372C0.100371 8.69545 0.101768 8.69732 0.103672 8.69893L0.109004 8.70377C0.173877 8.76461 0.261602 8.80235 0.358594 8.80235H5.55275C5.60019 8.80233 5.64715 8.79318 5.69096 8.77541C5.73478 8.75765 5.77458 8.73162 5.80811 8.69881C5.84164 8.666 5.86823 8.62705 5.88636 8.58419C5.9045 8.54133 5.91383 8.4954 5.91381 8.44901V7.17757C5.91384 7.13119 5.90453 7.08526 5.8864 7.0424C5.86826 6.99954 5.84167 6.96059 5.80814 6.92779C5.77461 6.89498 5.73479 6.86897 5.69097 6.85122C5.64715 6.83347 5.60018 6.82435 5.55275 6.82436M17.6378 0.19839H16.3375C16.2418 0.19839 16.15 0.23559 16.0822 0.301807C16.0145 0.368024 15.9765 0.457833 15.9765 0.551477V5.24354L12.2748 0.35507C12.2661 0.342607 12.2566 0.330667 12.2464 0.319314C12.2457 0.318445 12.2448 0.3177 12.2439 0.316831C12.2373 0.30928 12.2302 0.302108 12.2227 0.295353L12.2161 0.289393C12.2098 0.284055 12.2036 0.278468 12.197 0.273502L12.1872 0.266549C12.1776 0.259771 12.1677 0.253392 12.1576 0.24743C12.1512 0.243814 12.1447 0.240336 12.1382 0.237001C12.1345 0.235004 12.1307 0.233221 12.1268 0.231663C12.1201 0.228436 12.1132 0.225535 12.1062 0.222972C12.1024 0.221482 12.0985 0.219993 12.0945 0.218751C12.0875 0.216392 12.0806 0.214033 12.0732 0.212047C12.0691 0.21078 12.0649 0.209784 12.0606 0.209067C12.0425 0.204209 12.024 0.201091 12.0053 0.199756C11.9991 0.199259 11.9928 0.199135 11.9865 0.198887C11.9824 0.198763 11.9784 0.19839 11.9743 0.19839H10.6743C10.5785 0.19839 10.4867 0.235582 10.4189 0.301792C10.3512 0.368002 10.3131 0.45781 10.313 0.551477V8.44938C10.313 8.49577 10.3224 8.5417 10.3405 8.58454C10.3587 8.62739 10.3853 8.66632 10.4189 8.69911C10.4524 8.73189 10.4922 8.7579 10.5361 8.77563C10.5799 8.79337 10.6269 8.80249 10.6743 8.80247H11.9743C12.0217 8.80249 12.0687 8.79337 12.1125 8.77563C12.1564 8.7579 12.1962 8.73189 12.2297 8.69911C12.2633 8.66632 12.2899 8.62739 12.3081 8.58454C12.3262 8.5417 12.3356 8.49577 12.3356 8.44938V3.75869L16.0417 8.65324C16.0727 8.69565 16.1128 8.73084 16.1593 8.75629L16.1697 8.762C16.1754 8.76485 16.1811 8.76734 16.187 8.77007C16.1927 8.77255 16.1984 8.77503 16.2044 8.77727C16.2081 8.77888 16.2117 8.78 16.2155 8.78124C16.2235 8.78422 16.2317 8.78683 16.2399 8.78906L16.245 8.79031C16.2746 8.79775 16.3053 8.80235 16.3374 8.80235H17.6377C17.6851 8.80236 17.7321 8.79324 17.7759 8.77551C17.8197 8.75777 17.8595 8.73176 17.8931 8.69897C17.9266 8.66619 17.9532 8.62726 17.9714 8.58441C17.9895 8.54156 17.9989 8.49564 17.9989 8.44926V0.551229C17.9989 0.504851 17.9895 0.458926 17.9714 0.41608C17.9532 0.373233 17.9266 0.334304 17.8931 0.301515C17.8595 0.268726 17.8197 0.24272 17.7759 0.224983C17.7321 0.207246 17.6851 0.198126 17.6377 0.198142M8.68875 0.198142H7.38621C7.33894 0.198142 7.29212 0.20725 7.24845 0.224946C7.20477 0.242642 7.16509 0.268579 7.13167 0.301275C7.09825 0.333972 7.07174 0.372787 7.05366 0.415505C7.03558 0.458222 7.02628 0.504004 7.0263 0.550236V8.45013C7.02628 8.49636 7.03558 8.54214 7.05366 8.58486C7.07174 8.62758 7.09825 8.66639 7.13167 8.69909C7.16509 8.73179 7.20477 8.75772 7.24845 8.77542C7.29212 8.79312 7.33894 8.80222 7.38621 8.80222H8.68875C8.78424 8.80222 8.87582 8.76513 8.94334 8.6991C9.01086 8.63307 9.04879 8.54351 9.04879 8.45013V0.55036C9.04881 0.504118 9.03951 0.458326 9.02142 0.4156C9.00333 0.372875 8.97681 0.334054 8.94337 0.301356C8.90994 0.268657 8.87024 0.242723 8.82655 0.225034C8.78286 0.207346 8.73604 0.19825 8.68875 0.198266M64.6399 6.08256H63.198C63.1332 6.08248 63.0696 6.09957 63.0139 6.13201C62.9583 6.16445 62.9126 6.21103 62.8819 6.2668C62.7564 6.49516 62.5701 6.686 62.3426 6.81901C62.1151 6.95201 61.8549 7.02221 61.5899 7.02214C60.78 7.02214 60.1234 6.38002 60.1234 5.58806V3.41218C60.1234 2.62022 60.78 1.9781 61.5897 1.9781C61.8548 1.97803 62.115 2.04823 62.3425 2.18124C62.57 2.31424 62.7564 2.50508 62.8819 2.73344C62.9126 2.78921 62.9583 2.83579 63.0139 2.86823C63.0696 2.90068 63.1332 2.91776 63.198 2.91768H64.6399C64.8655 2.91768 65.0388 2.71196 64.986 2.49743C64.6336 1.06484 63.315 0.000244153 61.7414 0.000244153H61.4379C59.5949 0.000492457 58.1008 1.46151 58.1008 3.26382V5.73642C58.1008 7.53873 59.595 9 61.4383 9H61.7414C63.315 9 64.6336 7.9354 64.9861 6.50281C65.0389 6.28828 64.8655 6.08256 64.6399 6.08256ZM37.41 0.198142H35.8471C35.7227 0.198142 35.6071 0.26208 35.5433 0.366864L33.3708 3.92294L31.1986 0.366864C31.1672 0.315425 31.1226 0.272835 31.0694 0.243261C31.0161 0.213687 30.9559 0.19814 30.8946 0.198142H29.3318C29.2363 0.198142 29.1448 0.235237 29.0772 0.301268C29.0097 0.367298 28.9718 0.456855 28.9718 0.550236V8.45038C28.9718 8.5437 29.0098 8.6332 29.0773 8.69918C29.1448 8.76516 29.2363 8.80222 29.3317 8.80222H30.6342C30.6815 8.80224 30.7283 8.79315 30.772 8.77548C30.8157 8.7578 30.8553 8.73189 30.8888 8.69922C30.9222 8.66655 30.9487 8.62776 30.9668 8.58506C30.9849 8.54236 30.9943 8.4966 30.9943 8.45038V3.50914L32.9165 6.65589C32.9479 6.70729 32.9924 6.74986 33.0456 6.77943C33.0989 6.809 33.159 6.82457 33.2203 6.82461H33.5213C33.646 6.82461 33.7612 6.76043 33.8251 6.65577L35.7472 3.50927V8.45038C35.7472 8.49662 35.7565 8.54241 35.7746 8.58512C35.7927 8.62783 35.8193 8.66663 35.8528 8.69931C35.8862 8.73198 35.9259 8.75789 35.9696 8.77555C36.0133 8.79321 36.0602 8.80227 36.1075 8.80222H37.41C37.5054 8.80222 37.5969 8.76515 37.6644 8.69917C37.7319 8.63319 37.7698 8.54369 37.7698 8.45038V0.550236C37.7698 0.456898 37.7319 0.367379 37.6644 0.301356C37.5969 0.235332 37.5054 0.198208 37.41 0.198142ZM45.5002 0.198142H44.1977C44.1504 0.198126 44.1035 0.207221 44.0598 0.224908C44.0162 0.242595 43.9764 0.268527 43.943 0.301224C43.9096 0.333921 43.883 0.372741 43.8649 0.415467C43.8468 0.458193 43.8375 0.503988 43.8375 0.550236V5.6376C43.8375 6.40237 43.2038 7.02214 42.4218 7.02214C41.6401 7.02214 41.0059 6.40237 41.0061 5.6376V0.550236C41.006 0.456886 40.9681 0.367368 40.9006 0.301348C40.8331 0.235328 40.7416 0.198208 40.6462 0.198142H39.3436C39.2963 0.198109 39.2495 0.207192 39.2058 0.224872C39.162 0.242552 39.1223 0.268482 39.0889 0.30118C39.0554 0.333878 39.0289 0.372704 39.0108 0.415438C38.9926 0.458172 38.9833 0.503977 38.9833 0.550236V5.83537C38.9833 7.58318 40.4322 9 42.2196 9H42.624C44.4113 9 45.8602 7.58318 45.8602 5.83537V0.550112C45.8603 0.50387 45.851 0.458077 45.8329 0.415352C45.8148 0.372627 45.7883 0.333806 45.7548 0.301107C45.7214 0.268409 45.6817 0.242475 45.638 0.224786C45.5943 0.207097 45.5475 0.198001 45.5002 0.198018" fill="#0EE071"/>
</g>
<defs>
<clipPath id="clip0_189_974">
<rect width="65" height="9" fill="white"/>
</clipPath>
</defs>
</svg>
