<svg width="7" height="11" viewBox="0 0 7 11" fill="none" xmlns="http://www.w3.org/2000/svg">
<path d="M6.68182 4.63636H6.36364C6.18784 4.63636 6.04545 4.77874 6.04545 4.95454V5.90909C6.04545 7.39659 4.76298 8.59016 3.24565 8.44221C1.92321 8.31315 0.954545 7.12434 0.954545 5.79573V4.95454C0.954545 4.77874 0.812159 4.63636 0.636364 4.63636H0.318182C0.142386 4.63636 0 4.77874 0 4.95454V5.75318C0 7.53579 1.27213 9.12491 3.02273 9.36633V10.0454H1.90909C1.7333 10.0454 1.59091 10.1878 1.59091 10.3636V10.6818C1.59091 10.8576 1.7333 11 1.90909 11H5.09091C5.2667 11 5.40909 10.8576 5.40909 10.6818V10.3636C5.40909 10.1878 5.2667 10.0454 5.09091 10.0454H3.97727V9.37389C5.68173 9.14002 7 7.67698 7 5.90909V4.95454C7 4.77874 6.85761 4.63636 6.68182 4.63636ZM3.5 7.81818C4.55437 7.81818 5.40909 6.96346 5.40909 5.90909H3.71219C3.59506 5.90909 3.5 5.83789 3.5 5.74999V5.43181C3.5 5.34391 3.59506 5.27272 3.71219 5.27272H5.40909V4.63636H3.71219C3.59506 4.63636 3.5 4.56516 3.5 4.47727V4.15909C3.5 4.07119 3.59506 3.99999 3.71219 3.99999H5.40909V3.36363H3.71219C3.59506 3.36363 3.5 3.29244 3.5 3.20454V2.88636C3.5 2.79846 3.59506 2.72727 3.71219 2.72727H5.40909C5.40909 1.67289 4.55437 0.818176 3.5 0.818176C2.44563 0.818176 1.59091 1.67289 1.59091 2.72727V5.90909C1.59091 6.96346 2.44563 7.81818 3.5 7.81818Z" fill="white"/>
</svg>
