<svg width="53" height="15" viewBox="0 0 53 15" fill="none" xmlns="http://www.w3.org/2000/svg">
<path d="M10.1281 5.41468C11.1252 6.10667 12.3468 6.51382 13.6661 6.51382V4.04914C13.4164 4.04919 13.1674 4.02392 12.9231 3.97367V5.91372C11.6039 5.91372 10.3825 5.50658 9.38507 4.81464V9.84433C9.38507 12.3604 7.28404 14.4 4.69245 14.4C3.72546 14.4 2.82669 14.1162 2.08008 13.6294C2.93221 14.4753 4.12058 15 5.4353 15C8.02705 15 10.1282 12.9605 10.1282 10.4443V5.41468H10.1281ZM11.0447 2.92813C10.5351 2.38765 10.2005 1.68918 10.1281 0.916985V0.599976H9.42397C9.6012 1.58143 10.2057 2.41992 11.0447 2.92813ZM3.71926 11.6987C3.43455 11.3363 3.28069 10.8929 3.28138 10.4371C3.28138 9.28629 4.24237 8.35323 5.42798 8.35323C5.64894 8.35318 5.86857 8.38602 6.07914 8.45088V5.93112C5.83306 5.89838 5.5847 5.88448 5.33645 5.88958V7.85084C5.12572 7.78598 4.90599 7.75303 4.68498 7.75324C3.49937 7.75324 2.53842 8.6862 2.53842 9.83712C2.53842 10.6509 3.01876 11.3555 3.71926 11.6987Z" fill="#FF004F"/>
<path d="M9.38463 4.81459C10.382 5.50652 11.6034 5.91367 12.9226 5.91367V3.97362C12.1863 3.82135 11.5344 3.44776 11.0442 2.92813C10.2052 2.41987 9.60077 1.58138 9.42353 0.599976H7.57405V10.4442C7.56986 11.5918 6.61051 12.521 5.42744 12.521C4.73028 12.521 4.11092 12.1984 3.71867 11.6987C3.01822 11.3555 2.53788 10.6509 2.53788 9.83717C2.53788 8.68635 3.49882 7.75329 4.68443 7.75329C4.91159 7.75329 5.13054 7.78762 5.33591 7.85089V5.88963C2.78984 5.9407 0.742188 7.96034 0.742188 10.4442C0.742188 11.6841 1.2521 12.8082 2.0797 13.6295C2.82631 14.1162 3.72508 14.4 4.69207 14.4C7.28371 14.4 9.38469 12.3604 9.38469 9.84433V4.81459H9.38463Z" fill="black"/>
<path d="M12.9234 3.97364V3.44906C12.2594 3.45004 11.6084 3.2695 11.045 2.92809C11.5437 3.45818 12.2004 3.82368 12.9234 3.97364ZM9.4243 0.599992C9.40739 0.506196 9.39441 0.411783 9.3854 0.31701V0H6.83175V9.84429C6.82767 10.9918 5.86837 11.921 4.6852 11.921C4.33784 11.921 4.00987 11.841 3.71943 11.6987C4.11169 12.1984 4.73105 12.521 5.42821 12.521C6.61117 12.521 7.57068 11.5919 7.57481 10.4442V0.599992H9.4243ZM5.33678 5.88965V5.3312C5.1234 5.30289 4.90828 5.28868 4.69289 5.28878C2.10103 5.28873 0 7.32839 0 9.84429C0 11.4216 0.82574 12.8117 2.08052 13.6294C1.25292 12.8082 0.743007 11.6841 0.743007 10.4442C0.743007 7.96035 2.79061 5.94072 5.33678 5.88965Z" fill="#00F2EA"/>
<path d="M42.5117 12.3375C44.3662 12.3375 45.8695 10.8891 45.8695 9.10254C45.8695 7.31605 44.3662 5.86737 42.5117 5.86737H42.0059C43.8603 5.86737 45.3637 7.316 45.3637 9.10254C45.3637 10.8891 43.8603 12.3375 42.0059 12.3375H42.5117Z" fill="#FF004F"/>
<path d="M41.9615 5.86737H41.4556C39.6013 5.86737 38.0977 7.316 38.0977 9.10254C38.0977 10.8891 39.6013 12.3375 41.4556 12.3375H41.9615C40.1068 12.3375 38.6035 10.8891 38.6035 9.10254C38.6034 7.31605 40.1068 5.86737 41.9615 5.86737Z" fill="#00F2EA"/>
<path d="M16.4336 4.40521V6.04498H18.4111V12.2932H20.3894V6.08926H21.9991L22.551 4.40526H16.4336V4.40521ZM32.6241 4.40521V6.04498H34.6016V12.2932H36.5799V6.08926H38.1896L38.7415 4.40526H32.6241V4.40521ZM22.9193 5.33575C22.9193 4.82194 23.351 4.40521 23.8844 4.40521C24.4183 4.40521 24.8505 4.82194 24.8505 5.33575C24.8505 5.84962 24.4186 6.26635 23.8844 6.26635C23.351 6.26609 22.9193 5.84962 22.9193 5.33575ZM22.9193 6.93125H24.8505V12.2932H22.9193V6.93125ZM25.6786 4.40521V12.2932H27.6105V10.2549L28.2086 9.72267L30.0941 12.3375H32.1638L29.4498 8.52644L31.8877 6.22182H29.542L27.6105 8.08295V4.40521H25.6786ZM46.5143 4.40521V12.2932H48.4465V10.2549L49.0443 9.72267L50.9304 12.3375H53.0003L50.2863 8.52644L52.7241 6.22182H50.3785L48.4465 8.08295V4.40521H46.5143Z" fill="black"/>
<path d="M42.0072 12.3375C43.8615 12.3375 45.3651 10.8891 45.3651 9.10254C45.3651 7.31605 43.8615 5.86737 42.0072 5.86737H41.9613C40.1069 5.86737 38.6035 7.316 38.6035 9.10254C38.6035 10.8891 40.1069 12.3375 41.9613 12.3375H42.0072ZM40.3514 9.10254C40.3514 8.23352 41.0828 7.52959 41.9847 7.52959C42.8859 7.52959 43.6173 8.23352 43.6173 9.10254C43.6173 9.97156 42.8859 10.6759 41.9847 10.6759C41.0828 10.6757 40.3514 9.97156 40.3514 9.10254Z" fill="black"/>
</svg>
