<svg width="50" height="40" viewBox="0 0 50 40" fill="none" xmlns="http://www.w3.org/2000/svg">
<path d="M48.6172 21.1797L39.6172 17.6641C39.2969 17.5391 38.6328 17.375 37.8828 17.6641L28.8828 21.1797C28.0469 21.5078 27.5 22.2734 27.5 23.125C27.5 31.8437 32.8672 37.875 37.8828 39.8359C38.6328 40.125 39.2891 39.9609 39.6172 39.8359C43.625 38.2734 50 32.8516 50 23.125C50 22.2734 49.4531 21.5078 48.6172 21.1797ZM38.75 36.125V21.3516L46.2109 24.2656C45.7734 31.0703 41.4531 34.8437 38.75 36.125V36.125ZM17.5 20C23.0234 20 27.5 15.5234 27.5 10C27.5 4.47656 23.0234 0 17.5 0C11.9766 0 7.5 4.47656 7.5 10C7.5 15.5234 11.9766 20 17.5 20ZM25 23.125C25 22.9297 25.0625 22.75 25.0859 22.5625C24.8906 22.5547 24.7031 22.5 24.5 22.5H23.1953C21.4609 23.2969 19.5312 23.75 17.5 23.75C15.4688 23.75 13.5469 23.2969 11.8047 22.5H10.5C4.70312 22.5 0 27.2031 0 33V36.25C0 38.3203 1.67969 40 3.75 40H31.25C31.7813 40 32.2891 39.8828 32.75 39.6875C28.5313 36.3359 25 30.5703 25 23.125V23.125Z" fill="#463F3A"/>
</svg>
